<?xml version="1.0" encoding="utf-8"?>
<!-- Generator: Adobe Illustrator 15.1.0, SVG Export Plug-In . SVG Version: 6.00 Build 0)  -->
<!DOCTYPE svg PUBLIC "-//W3C//DTD SVG 1.1//EN" "http://www.w3.org/Graphics/SVG/1.1/DTD/svg11.dtd">
<svg version="1.1" id="Layer_2" xmlns="http://www.w3.org/2000/svg" xmlns:xlink="http://www.w3.org/1999/xlink" x="0px" y="0px"
	 width="16px" height="16px" viewBox="0 0 16 16" enable-background="new 0 0 16 16" xml:space="preserve">
<path fill="#00ED73" d="M12.6,5.946l-0.094,0.071c-0.27,0.333-0.746,1.096-0.91,2.375c0.057,0.278,0.092,0.495,0.092,0.545
	c0,2.205-1.793,4-4,4c-1.098,0-2.092-0.445-2.816-1.164c-0.718-0.725-1.163-1.719-1.163-2.814c0-2.207,1.794-4.001,4-4.001
	l0.351,0.025v1.85c0,0,1.627-1.342,1.631-1.339l1.869-1.577L8.059,1v2.218l-0.371-0.03c-3.175,0-5.75,2.574-5.75,5.75
	c0,1.594,0.648,3.035,1.695,4.076c1.042,1.047,2.482,1.695,4.076,1.695c3.176,0,5.75-2.574,5.75-5.75
	C13.458,7.852,13.141,6.823,12.6,5.946z"/>
</svg>
