<?xml version="1.0" encoding="utf-8"?>
<!-- Generator: Adobe Illustrator 15.1.0, SVG Export Plug-In . SVG Version: 6.00 Build 0)  -->
<!DOCTYPE svg PUBLIC "-//W3C//DTD SVG 1.1//EN" "http://www.w3.org/Graphics/SVG/1.1/DTD/svg11.dtd">
<svg version="1.1" id="Layer_1" xmlns="http://www.w3.org/2000/svg" xmlns:xlink="http://www.w3.org/1999/xlink" x="0px" y="0px"
	 width="50px" height="40px" viewBox="0 0 50 40" enable-background="new 0 0 50 40" xml:space="preserve">
<path fill="none" stroke="#4D4D4D" stroke-width="4" stroke-miterlimit="10" d="M15.458,7.675c6.33-4.724,14.371-2.15,18.029,5.595
	c2.896,6.137,1.335,14.174-3.532,18.05c-3.941,3.142-9.125,1.711-11.548-3.26c-1.951-4.002-0.895-9.284,2.341-11.758
	c2.567-1.962,5.87-0.958,7.386,2.218c1.209,2.531,0.557,5.854-1.465,7.44c-1.625,1.275-3.744,0.669-4.729-1.367
	c-0.79-1.631-0.363-3.781,0.95-4.795c1.048-0.809,2.402-0.406,3.026,0.896c0.5,1.039,0.23,2.406-0.603,3.056"/>
</svg>
